Coordinates
version=1
nRows=24
nColumns=38
inDegrees=no

Units are S.I. units (second, meters, Newtons, ...)
If the header above contains a line with 'inDegrees', this indicates whether rotational values are in degrees (yes) or radians (no).

endheader
time	pelvis_tilt	pelvis_list	pelvis_rotation	pelvis_tx	pelvis_ty	pelvis_tz	hip_flexion_r	hip_adduction_r	hip_rotation_r	knee_angle_r	ankle_angle_r	subtalar_angle_r	mtp_angle_r	hip_flexion_l	hip_adduction_l	hip_rotation_l	knee_angle_l	ankle_angle_l	subtalar_angle_l	mtp_angle_l	lumbar_extension	lumbar_bending	lumbar_rotation	arm_flex_r	arm_add_r	arm_rot_r	elbow_flex_r	pro_sup_r	wrist_flex_r	wrist_dev_r	arm_flex_l	arm_add_l	arm_rot_l	elbow_flex_l	pro_sup_l	wrist_flex_l	wrist_dev_l
60	0.274423	1.47664	1.24856	0.672852	0.830074	1.00412	0.399779	-0.115885	-0.275715	0.787239	-0.14237	0	0	0.318944	-0.198933	-0.465092	0.715478	-0.18622	0	0	-0.0585759	0.162209	-0.2523	0.428945	-0.162715	0.482685	0.0782765	1.5708	0	0	-0.266862	-0.178663	-0.0999185	0.918203	1.4803	0	0
60.01	0.272379	1.47587	1.25019	0.672593	0.829449	1.00068	0.409672	-0.118915	-0.274195	0.807676	-0.131903	0	0	0.328894	-0.201486	-0.461426	0.735499	-0.173057	0	0	-0.0626527	0.168933	-0.249856	0.434507	-0.166764	0.477513	0.0726799	1.5708	0	0	-0.260627	-0.178955	-0.0949684	0.922744	1.48173	0	0
60.02	0.266213	1.47538	1.25765	0.672246	0.828771	0.997003	0.419651	-0.122646	-0.272887	0.82708	-0.121232	0	0	0.339641	-0.201985	-0.452763	0.755837	-0.158451	0	0	-0.0663885	0.175206	-0.249167	0.440206	-0.170389	0.473483	0.0665436	1.5708	0	0	-0.255219	-0.180035	-0.0897821	0.928538	1.48262	0	0
60.03	0.255195	1.4758	1.27094	0.671843	0.828016	0.993211	0.429307	-0.12692	-0.270933	0.845522	-0.112634	0	0	0.349889	-0.20103	-0.442656	0.776114	-0.14605	0	0	-0.0708739	0.180793	-0.24911	0.445652	-0.174253	0.473737	0.0612167	1.5708	0	0	-0.249689	-0.181858	-0.0843055	0.934799	1.48386	0	0
60.04	0.237146	1.47523	1.29036	0.671423	0.827406	0.989252	0.439963	-0.131542	-0.268264	0.86234	-0.105117	0	0	0.360075	-0.199198	-0.434374	0.796276	-0.134595	0	0	-0.0742846	0.185635	-0.24765	0.449581	-0.179121	0.48149	0.0577432	1.56302	0	0	-0.244404	-0.184096	-0.0784586	0.941084	1.48596	0	0
60.05	0.214038	1.47557	1.31461	0.671304	0.826616	0.985279	0.450359	-0.136072	-0.264974	0.881654	-0.0997462	0	0	0.370427	-0.199268	-0.427982	0.816416	-0.127044	0	0	-0.0781227	0.189782	-0.244845	0.453923	-0.183343	0.4755	0.052352	1.56762	0	0	-0.238563	-0.185646	-0.0739013	0.946582	1.48846	0	0
60.06	0.179211	1.47286	1.3506	0.671105	0.825997	0.980872	0.465016	-0.142116	-0.261922	0.905202	-0.0804192	0	0	0.384021	-0.197469	-0.42035	0.837702	-0.10522	0	0	-0.0769033	0.192719	-0.239882	0.459037	-0.185735	0.450122	0.0384856	1.5708	0	0	-0.232767	-0.19122	-0.0603166	0.951548	1.4875	0	0
60.07	0.143341	1.47102	1.38801	0.670911	0.825411	0.976452	0.478144	-0.148567	-0.258608	0.926976	-0.0685711	0	0	0.396314	-0.195483	-0.413997	0.858427	-0.0921335	0	0	-0.0773251	0.195226	-0.237262	0.462632	-0.18952	0.447672	0.0310632	1.5708	0	0	-0.228549	-0.194727	-0.0536514	0.957557	1.48956	0	0
60.08	0.107535	1.46976	1.42469	0.670795	0.824758	0.971987	0.490537	-0.154527	-0.253955	0.948648	-0.0558995	0	0	0.407716	-0.193794	-0.408769	0.879492	-0.0791162	0	0	-0.0790284	0.197254	-0.233908	0.466983	-0.192773	0.446451	0.0219472	1.5708	0	0	-0.224327	-0.198384	-0.0480447	0.964081	1.49173	0	0
60.09	0.0709575	1.46849	1.46185	0.67072	0.824067	0.967445	0.502917	-0.160222	-0.248547	0.970206	-0.0419738	0	0	0.419126	-0.192136	-0.403851	0.901227	-0.065454	0	0	-0.0811161	0.198872	-0.230249	0.47125	-0.19569	0.449287	0.0124055	1.5708	0	0	-0.220193	-0.201902	-0.0437625	0.970619	1.49428	0	0
60.1	0.035769	1.46748	1.49744	0.670695	0.823356	0.962859	0.515007	-0.165634	-0.242568	0.991649	-0.030522	0	0	0.430146	-0.190767	-0.399389	0.923373	-0.0543055	0	0	-0.084128	0.200237	-0.226255	0.475088	-0.198968	0.454263	0.00516646	1.5708	0	0	-0.216088	-0.204961	-0.0414265	0.97716	1.49637	0	0
60.11	3.14842e-05	1.46582	1.53356	0.670693	0.822691	0.958127	0.527847	-0.171044	-0.236615	1.01333	-0.0163849	0	0	0.441763	-0.189531	-0.395418	0.945953	-0.0411689	0	0	-0.0867191	0.201169	-0.222514	0.4781	-0.202178	0.459851	0	1.5708	0	0	-0.212699	-0.207806	-0.0403462	0.983703	1.49763	0	0
60.12	-0.0347391	1.46382	1.56865	0.670703	0.822044	0.953285	0.541236	-0.176334	-0.230425	1.03548	-0.00314666	0	0	0.453693	-0.188612	-0.392444	0.969065	-0.0284877	0	0	-0.0896102	0.201554	-0.21876	0.479657	-0.205912	0.464596	0	1.5708	0	0	-0.209716	-0.210466	-0.0405653	0.990523	1.49764	0	0
60.13	-0.0670378	1.46258	1.60115	0.6707	0.821381	0.948435	0.553762	-0.181433	-0.224448	1.05758	0.00733825	0	0	0.464711	-0.187968	-0.39001	0.992292	-0.0179948	0	0	-0.093518	0.201909	-0.21498	0.481601	-0.209222	0.466988	0	1.5708	0	0	-0.206473	-0.212786	-0.0414072	0.996568	1.49667	0	0
60.14	-0.0967715	1.46185	1.63105	0.670682	0.820759	0.943591	0.565286	-0.186352	-0.219038	1.07962	0.0161533	0	0	0.474844	-0.187672	-0.387892	1.01532	-0.00908279	0	0	-0.098246	0.20252	-0.211529	0.484085	-0.212343	0.46705	0	1.5708	0	0	-0.203102	-0.214749	-0.0425701	1.00159	1.49503	0	0
60.15	-0.126639	1.4609	1.66093	0.670662	0.820167	0.938651	0.577244	-0.191429	-0.213476	1.10157	0.0212279	0	0	0.485002	-0.187319	-0.385677	1.03834	-0.00217225	0	0	-0.102992	0.202906	-0.2089	0.486825	-0.215127	0.468401	0	1.5708	0	0	-0.200398	-0.216259	-0.0453774	1.00638	1.49347	0	0
60.16	-0.156259	1.45956	1.69127	0.670578	0.819583	0.933594	0.589436	-0.197076	-0.208647	1.12331	0.0318884	0	0	0.495576	-0.186341	-0.381813	1.06143	0.00897358	0	0	-0.107309	0.202974	-0.207507	0.489979	-0.217462	0.465581	0	1.5708	0	0	-0.198088	-0.21784	-0.0484583	1.0107	1.49004	0	0
60.17	-0.181878	1.4593	1.71864	0.670395	0.818944	0.928607	0.599498	-0.202684	-0.205407	1.14438	0.0401764	0	0	0.505248	-0.185361	-0.376174	1.08455	0.0173365	0	0	-0.112722	0.203828	-0.207141	0.49391	-0.219994	0.462787	0	1.5708	0	0	-0.194541	-0.219656	-0.0504047	1.01306	1.48682	0	0
60.18	-0.204744	1.45868	1.7428	0.67023	0.818419	0.923578	0.609516	-0.207766	-0.20185	1.16517	0.0490549	0	0	0.515092	-0.184165	-0.371154	1.10667	0.0263107	0	0	-0.117536	0.204873	-0.206928	0.497953	-0.222657	0.459542	0	1.5708	0	0	-0.191166	-0.221305	-0.0519282	1.01394	1.48319	0	0
60.19	-0.225803	1.45715	1.76473	0.670072	0.81801	0.918455	0.620744	-0.212801	-0.197936	1.1863	0.0586869	0	0	0.525884	-0.182686	-0.366699	1.12863	0.0364481	0	0	-0.121102	0.205776	-0.206786	0.501773	-0.225545	0.455847	0	1.5708	0	0	-0.188173	-0.22292	-0.0528583	1.01339	1.47925	0	0
60.2	-0.240596	1.45296	1.78059	0.669917	0.817743	0.913076	0.63451	-0.217628	-0.194068	1.20853	0.0820004	0	0	0.539754	-0.180886	-0.360937	1.15125	0.0594814	0	0	-0.118971	0.206778	-0.205448	0.502555	-0.230146	0.449546	0	1.5708	0	0	-0.184022	-0.22842	-0.0415608	1.00847	1.46171	0	0
60.21	-0.246393	1.44942	1.78917	0.669646	0.817527	0.907802	0.647092	-0.222493	-0.192444	1.22969	0.0903334	0	0	0.55354	-0.178566	-0.351038	1.1734	0.0756085	0	0	-0.116608	0.209616	-0.206643	0.503141	-0.234992	0.456685	0	1.56593	0	0	-0.17961	-0.230851	-0.0353118	1.00049	1.4561	0	0
60.22	-0.25097	1.42954	1.81304	0.667808	0.815171	0.901922	0.677246	-0.239609	-0.195219	1.2498	0.0962862	0	0	0.594202	-0.0861236	-0.180011	1.17095	0.107805	0	0	-0.0987313	0.210156	-0.221008	0.503678	-0.240321	0.464354	0	1.54823	0	0	-0.168272	-0.234446	-0.0259481	0.986676	1.45188	0	0
60.23	-0.257263	1.42967	1.82054	0.667636	0.814902	0.896954	0.686534	-0.242704	-0.191628	1.26992	0.104288	0	0	0.603567	-0.086348	-0.177757	1.19397	0.116126	0	0	-0.102011	0.213396	-0.220864	0.506916	-0.244649	0.474915	0	1.53033	0	0	-0.162438	-0.23633	-0.0207625	0.978009	1.44809	0	0
